<mxfile host="app.diagrams.net" modified="2024-04-17T11:48:42.911Z" agent="Mozilla/5.0 (Windows NT 10.0; Win64; x64) AppleWebKit/537.36 (KHTML, like Gecko) Chrome/123.0.0.0 Safari/537.36" etag="Z2jJ1dnHKpzFGdWnaR9k" version="24.2.5" type="device">
  <diagram name="Page-1" id="-j9xKy3oS1jijL0Zy8T_">
    <mxGraphModel dx="1687" dy="856" grid="1" gridSize="10" guides="1" tooltips="1" connect="1" arrows="1" fold="1" page="1" pageScale="1" pageWidth="850" pageHeight="1100" math="0" shadow="0">
      <root>
        <mxCell id="0" />
        <mxCell id="1" parent="0" />
        <mxCell id="6mJzvF8CL9lqk7zAbsf5-2" value="" style="swimlane;startSize=0;fillColor=#f5f5f5;fontColor=#333333;strokeColor=#666666;" vertex="1" parent="1">
          <mxGeometry x="120" y="160" width="440" height="660" as="geometry">
            <mxRectangle x="160" y="160" width="50" height="40" as="alternateBounds" />
          </mxGeometry>
        </mxCell>
        <mxCell id="6mJzvF8CL9lqk7zAbsf5-46" value="" style="endArrow=classic;html=1;rounded=0;fillColor=#e1d5e7;strokeColor=#000000;" edge="1" parent="6mJzvF8CL9lqk7zAbsf5-2">
          <mxGeometry width="50" height="50" relative="1" as="geometry">
            <mxPoint x="180" y="500" as="sourcePoint" />
            <mxPoint x="180" y="300" as="targetPoint" />
          </mxGeometry>
        </mxCell>
        <mxCell id="6mJzvF8CL9lqk7zAbsf5-70" value="" style="endArrow=classic;html=1;rounded=0;fillColor=#e1d5e7;strokeColor=#000000;" edge="1" parent="6mJzvF8CL9lqk7zAbsf5-2">
          <mxGeometry width="50" height="50" relative="1" as="geometry">
            <mxPoint x="219.64" y="420" as="sourcePoint" />
            <mxPoint x="220" y="300" as="targetPoint" />
          </mxGeometry>
        </mxCell>
        <mxCell id="6mJzvF8CL9lqk7zAbsf5-9" style="edgeStyle=orthogonalEdgeStyle;rounded=0;orthogonalLoop=1;jettySize=auto;html=1;entryX=0.5;entryY=0;entryDx=0;entryDy=0;" edge="1" parent="6mJzvF8CL9lqk7zAbsf5-2" source="6mJzvF8CL9lqk7zAbsf5-7" target="6mJzvF8CL9lqk7zAbsf5-8">
          <mxGeometry relative="1" as="geometry" />
        </mxCell>
        <mxCell id="6mJzvF8CL9lqk7zAbsf5-7" value="&lt;div&gt;&lt;font color=&quot;#000000&quot;&gt;Read RS232 message&lt;/font&gt;&lt;/div&gt;&lt;font color=&quot;#ff0000&quot;&gt;API_read_RS323()&lt;/font&gt;" style="rounded=0;whiteSpace=wrap;html=1;fillColor=#f5f5f5;strokeColor=#666666;fontColor=#333333;" vertex="1" parent="6mJzvF8CL9lqk7zAbsf5-2">
          <mxGeometry x="35" y="40" width="130" height="40" as="geometry" />
        </mxCell>
        <mxCell id="6mJzvF8CL9lqk7zAbsf5-12" style="edgeStyle=orthogonalEdgeStyle;rounded=0;orthogonalLoop=1;jettySize=auto;html=1;" edge="1" parent="6mJzvF8CL9lqk7zAbsf5-2" target="6mJzvF8CL9lqk7zAbsf5-11">
          <mxGeometry relative="1" as="geometry">
            <mxPoint x="100" y="160" as="sourcePoint" />
          </mxGeometry>
        </mxCell>
        <mxCell id="6mJzvF8CL9lqk7zAbsf5-8" value="Translate string to command" style="rounded=0;whiteSpace=wrap;html=1;fillColor=#f5f5f5;fontColor=#333333;strokeColor=#666666;" vertex="1" parent="6mJzvF8CL9lqk7zAbsf5-2">
          <mxGeometry x="40" y="120" width="120" height="40" as="geometry" />
        </mxCell>
        <mxCell id="6mJzvF8CL9lqk7zAbsf5-99" style="edgeStyle=orthogonalEdgeStyle;rounded=0;orthogonalLoop=1;jettySize=auto;html=1;entryX=0.5;entryY=1;entryDx=0;entryDy=0;" edge="1" parent="6mJzvF8CL9lqk7zAbsf5-2" source="6mJzvF8CL9lqk7zAbsf5-11" target="6mJzvF8CL9lqk7zAbsf5-98">
          <mxGeometry relative="1" as="geometry" />
        </mxCell>
        <mxCell id="6mJzvF8CL9lqk7zAbsf5-11" value="Execute command&lt;div&gt;&lt;font color=&quot;#009900&quot;&gt;LogicLayer()&lt;/font&gt;&lt;/div&gt;" style="rounded=0;whiteSpace=wrap;html=1;fillColor=#f5f5f5;fontColor=#333333;strokeColor=#666666;" vertex="1" parent="6mJzvF8CL9lqk7zAbsf5-2">
          <mxGeometry x="40" y="200" width="120" height="40" as="geometry" />
        </mxCell>
        <mxCell id="6mJzvF8CL9lqk7zAbsf5-18" value="Switch commands" style="shape=hexagon;perimeter=hexagonPerimeter2;whiteSpace=wrap;html=1;fixedSize=1;direction=south;fillColor=#d5e8d4;strokeColor=#82b366;size=40;" vertex="1" parent="6mJzvF8CL9lqk7zAbsf5-2">
          <mxGeometry x="40" y="320" width="80" height="240" as="geometry" />
        </mxCell>
        <mxCell id="6mJzvF8CL9lqk7zAbsf5-19" value="&lt;font color=&quot;#ff0000&quot;&gt;Clear_screen()&lt;/font&gt;" style="rounded=0;whiteSpace=wrap;html=1;fillColor=#d5e8d4;strokeColor=#82b366;" vertex="1" parent="6mJzvF8CL9lqk7zAbsf5-2">
          <mxGeometry x="160" y="340" width="120" height="40" as="geometry" />
        </mxCell>
        <mxCell id="6mJzvF8CL9lqk7zAbsf5-33" style="edgeStyle=orthogonalEdgeStyle;rounded=0;orthogonalLoop=1;jettySize=auto;html=1;exitX=1;exitY=0.5;exitDx=0;exitDy=0;entryX=0;entryY=0.5;entryDx=0;entryDy=0;" edge="1" parent="6mJzvF8CL9lqk7zAbsf5-2" source="6mJzvF8CL9lqk7zAbsf5-20" target="6mJzvF8CL9lqk7zAbsf5-31">
          <mxGeometry relative="1" as="geometry" />
        </mxCell>
        <mxCell id="6mJzvF8CL9lqk7zAbsf5-20" value="&lt;font color=&quot;#ff0000&quot;&gt;Draw_tekst()&lt;/font&gt;" style="rounded=0;whiteSpace=wrap;html=1;fillColor=#d5e8d4;strokeColor=#82b366;" vertex="1" parent="6mJzvF8CL9lqk7zAbsf5-2">
          <mxGeometry x="160" y="420" width="120" height="40" as="geometry" />
        </mxCell>
        <mxCell id="6mJzvF8CL9lqk7zAbsf5-25" style="edgeStyle=orthogonalEdgeStyle;rounded=0;orthogonalLoop=1;jettySize=auto;html=1;entryX=0;entryY=0.5;entryDx=0;entryDy=0;exitX=0.332;exitY=1;exitDx=0;exitDy=0;exitPerimeter=0;" edge="1" parent="6mJzvF8CL9lqk7zAbsf5-2" source="6mJzvF8CL9lqk7zAbsf5-11" target="6mJzvF8CL9lqk7zAbsf5-18">
          <mxGeometry relative="1" as="geometry" />
        </mxCell>
        <mxCell id="6mJzvF8CL9lqk7zAbsf5-21" value="&lt;font color=&quot;#ff0000&quot;&gt;Draw_figure()&lt;/font&gt;" style="rounded=0;whiteSpace=wrap;html=1;fillColor=#d5e8d4;strokeColor=#82b366;" vertex="1" parent="6mJzvF8CL9lqk7zAbsf5-2">
          <mxGeometry x="160" y="500" width="120" height="40" as="geometry" />
        </mxCell>
        <mxCell id="6mJzvF8CL9lqk7zAbsf5-28" value="" style="endArrow=classic;html=1;rounded=0;" edge="1" parent="6mJzvF8CL9lqk7zAbsf5-2">
          <mxGeometry width="50" height="50" relative="1" as="geometry">
            <mxPoint x="120" y="359.83" as="sourcePoint" />
            <mxPoint x="160" y="359.83" as="targetPoint" />
          </mxGeometry>
        </mxCell>
        <mxCell id="6mJzvF8CL9lqk7zAbsf5-29" value="" style="endArrow=classic;html=1;rounded=0;" edge="1" parent="6mJzvF8CL9lqk7zAbsf5-2">
          <mxGeometry width="50" height="50" relative="1" as="geometry">
            <mxPoint x="120" y="439.83000000000004" as="sourcePoint" />
            <mxPoint x="160" y="439.83000000000004" as="targetPoint" />
          </mxGeometry>
        </mxCell>
        <mxCell id="6mJzvF8CL9lqk7zAbsf5-30" value="" style="endArrow=classic;html=1;rounded=0;" edge="1" parent="6mJzvF8CL9lqk7zAbsf5-2">
          <mxGeometry width="50" height="50" relative="1" as="geometry">
            <mxPoint x="120" y="519.83" as="sourcePoint" />
            <mxPoint x="160" y="519.83" as="targetPoint" />
          </mxGeometry>
        </mxCell>
        <mxCell id="6mJzvF8CL9lqk7zAbsf5-31" value="Video&lt;div&gt;memory&lt;/div&gt;" style="rounded=0;whiteSpace=wrap;html=1;fillColor=#f8cecc;strokeColor=#b85450;" vertex="1" parent="6mJzvF8CL9lqk7zAbsf5-2">
          <mxGeometry x="320" y="320" width="80" height="240" as="geometry" />
        </mxCell>
        <mxCell id="6mJzvF8CL9lqk7zAbsf5-32" style="edgeStyle=orthogonalEdgeStyle;rounded=0;orthogonalLoop=1;jettySize=auto;html=1;exitX=1;exitY=0.5;exitDx=0;exitDy=0;entryX=0;entryY=0.834;entryDx=0;entryDy=0;entryPerimeter=0;" edge="1" parent="6mJzvF8CL9lqk7zAbsf5-2" source="6mJzvF8CL9lqk7zAbsf5-21" target="6mJzvF8CL9lqk7zAbsf5-31">
          <mxGeometry relative="1" as="geometry" />
        </mxCell>
        <mxCell id="6mJzvF8CL9lqk7zAbsf5-34" style="edgeStyle=orthogonalEdgeStyle;rounded=0;orthogonalLoop=1;jettySize=auto;html=1;exitX=1;exitY=0.5;exitDx=0;exitDy=0;" edge="1" parent="6mJzvF8CL9lqk7zAbsf5-2" source="6mJzvF8CL9lqk7zAbsf5-19">
          <mxGeometry relative="1" as="geometry">
            <mxPoint x="320" y="360" as="targetPoint" />
          </mxGeometry>
        </mxCell>
        <mxCell id="6mJzvF8CL9lqk7zAbsf5-39" value="" style="edgeStyle=orthogonalEdgeStyle;rounded=0;orthogonalLoop=1;jettySize=auto;html=1;exitX=0.5;exitY=1;exitDx=0;exitDy=0;entryX=1;entryY=0.5;entryDx=0;entryDy=0;" edge="1" parent="6mJzvF8CL9lqk7zAbsf5-2" source="6mJzvF8CL9lqk7zAbsf5-31" target="6mJzvF8CL9lqk7zAbsf5-36">
          <mxGeometry relative="1" as="geometry">
            <mxPoint x="400" y="520" as="sourcePoint" />
            <mxPoint x="440" y="280" as="targetPoint" />
            <Array as="points">
              <mxPoint x="360" y="560" />
              <mxPoint x="360" y="600" />
            </Array>
          </mxGeometry>
        </mxCell>
        <mxCell id="6mJzvF8CL9lqk7zAbsf5-41" value="&lt;div&gt;&lt;font color=&quot;#000000&quot;&gt;Write RS232 message&lt;/font&gt;&lt;/div&gt;&lt;font color=&quot;#ff0000&quot;&gt;API_write_RS323()&lt;/font&gt;" style="rounded=0;whiteSpace=wrap;html=1;fillColor=#f5f5f5;strokeColor=#666666;fontColor=#333333;" vertex="1" parent="6mJzvF8CL9lqk7zAbsf5-2">
          <mxGeometry x="275" y="40" width="130" height="40" as="geometry" />
        </mxCell>
        <mxCell id="6mJzvF8CL9lqk7zAbsf5-45" value="&lt;font color=&quot;#009900&quot;&gt;Error_handler()&lt;/font&gt;" style="rounded=0;whiteSpace=wrap;html=1;fillColor=#d5e8d4;strokeColor=#82b366;" vertex="1" parent="6mJzvF8CL9lqk7zAbsf5-2">
          <mxGeometry x="160" y="260" width="120" height="40" as="geometry" />
        </mxCell>
        <mxCell id="6mJzvF8CL9lqk7zAbsf5-95" value="" style="endArrow=classic;html=1;rounded=0;fillColor=#e1d5e7;strokeColor=#000000;" edge="1" parent="6mJzvF8CL9lqk7zAbsf5-2">
          <mxGeometry width="50" height="50" relative="1" as="geometry">
            <mxPoint x="260" y="340" as="sourcePoint" />
            <mxPoint x="260" y="300" as="targetPoint" />
          </mxGeometry>
        </mxCell>
        <mxCell id="6mJzvF8CL9lqk7zAbsf5-97" style="edgeStyle=orthogonalEdgeStyle;rounded=0;orthogonalLoop=1;jettySize=auto;html=1;entryX=0.669;entryY=0.992;entryDx=0;entryDy=0;entryPerimeter=0;" edge="1" parent="6mJzvF8CL9lqk7zAbsf5-2" source="6mJzvF8CL9lqk7zAbsf5-45" target="6mJzvF8CL9lqk7zAbsf5-11">
          <mxGeometry relative="1" as="geometry">
            <Array as="points">
              <mxPoint x="120" y="280" />
            </Array>
          </mxGeometry>
        </mxCell>
        <mxCell id="6mJzvF8CL9lqk7zAbsf5-98" value="Translate Error to user instruction" style="rounded=0;whiteSpace=wrap;html=1;fillColor=#f5f5f5;fontColor=#333333;strokeColor=#666666;" vertex="1" parent="6mJzvF8CL9lqk7zAbsf5-2">
          <mxGeometry x="280" y="120" width="120" height="40" as="geometry" />
        </mxCell>
        <mxCell id="6mJzvF8CL9lqk7zAbsf5-100" style="edgeStyle=orthogonalEdgeStyle;rounded=0;orthogonalLoop=1;jettySize=auto;html=1;entryX=0.5;entryY=1;entryDx=0;entryDy=0;" edge="1" parent="6mJzvF8CL9lqk7zAbsf5-2" source="6mJzvF8CL9lqk7zAbsf5-98" target="6mJzvF8CL9lqk7zAbsf5-41">
          <mxGeometry relative="1" as="geometry" />
        </mxCell>
        <mxCell id="6mJzvF8CL9lqk7zAbsf5-36" value="VGA driver" style="rounded=0;whiteSpace=wrap;html=1;fillColor=#f8cecc;strokeColor=#b85450;" vertex="1" parent="6mJzvF8CL9lqk7zAbsf5-2">
          <mxGeometry x="160" y="580" width="120" height="40" as="geometry" />
        </mxCell>
        <mxCell id="6mJzvF8CL9lqk7zAbsf5-103" style="edgeStyle=orthogonalEdgeStyle;rounded=0;orthogonalLoop=1;jettySize=auto;html=1;" edge="1" parent="6mJzvF8CL9lqk7zAbsf5-2" source="6mJzvF8CL9lqk7zAbsf5-36">
          <mxGeometry relative="1" as="geometry">
            <mxPoint x="220" y="700" as="targetPoint" />
          </mxGeometry>
        </mxCell>
        <mxCell id="6mJzvF8CL9lqk7zAbsf5-3" value="STM32F407" style="text;html=1;align=center;verticalAlign=middle;resizable=0;points=[];autosize=1;strokeColor=none;fillColor=none;" vertex="1" parent="1">
          <mxGeometry x="120" y="138" width="90" height="30" as="geometry" />
        </mxCell>
        <mxCell id="6mJzvF8CL9lqk7zAbsf5-10" style="edgeStyle=orthogonalEdgeStyle;rounded=0;orthogonalLoop=1;jettySize=auto;html=1;entryX=0.5;entryY=0;entryDx=0;entryDy=0;" edge="1" parent="1" source="6mJzvF8CL9lqk7zAbsf5-4" target="6mJzvF8CL9lqk7zAbsf5-7">
          <mxGeometry relative="1" as="geometry" />
        </mxCell>
        <mxCell id="6mJzvF8CL9lqk7zAbsf5-4" value="RS232 vanuit PC" style="shape=parallelogram;perimeter=parallelogramPerimeter;whiteSpace=wrap;html=1;fixedSize=1;" vertex="1" parent="1">
          <mxGeometry x="145" y="80" width="150" height="40" as="geometry" />
        </mxCell>
        <mxCell id="6mJzvF8CL9lqk7zAbsf5-40" value="RS232 naar PC" style="shape=parallelogram;perimeter=parallelogramPerimeter;whiteSpace=wrap;html=1;fixedSize=1;" vertex="1" parent="1">
          <mxGeometry x="385" y="80" width="150" height="40" as="geometry" />
        </mxCell>
        <mxCell id="6mJzvF8CL9lqk7zAbsf5-44" style="edgeStyle=orthogonalEdgeStyle;rounded=0;orthogonalLoop=1;jettySize=auto;html=1;entryX=0.499;entryY=1.067;entryDx=0;entryDy=0;entryPerimeter=0;" edge="1" parent="1" source="6mJzvF8CL9lqk7zAbsf5-41" target="6mJzvF8CL9lqk7zAbsf5-40">
          <mxGeometry relative="1" as="geometry" />
        </mxCell>
        <mxCell id="6mJzvF8CL9lqk7zAbsf5-102" value="VGA output" style="shape=parallelogram;perimeter=parallelogramPerimeter;whiteSpace=wrap;html=1;fixedSize=1;" vertex="1" parent="1">
          <mxGeometry x="260" y="860" width="160" height="40" as="geometry" />
        </mxCell>
        <mxCell id="6mJzvF8CL9lqk7zAbsf5-104" value="UI Layer" style="rounded=0;whiteSpace=wrap;html=1;fillColor=#f5f5f5;fontColor=#333333;strokeColor=#666666;" vertex="1" parent="1">
          <mxGeometry x="600" y="200" width="120" height="40" as="geometry" />
        </mxCell>
        <mxCell id="6mJzvF8CL9lqk7zAbsf5-105" value="Logic Layer" style="rounded=0;whiteSpace=wrap;html=1;fillColor=#d5e8d4;strokeColor=#82b366;" vertex="1" parent="1">
          <mxGeometry x="600" y="260" width="120" height="40" as="geometry" />
        </mxCell>
        <mxCell id="6mJzvF8CL9lqk7zAbsf5-106" value="I/O Layer" style="rounded=0;whiteSpace=wrap;html=1;fillColor=#f8cecc;strokeColor=#b85450;" vertex="1" parent="1">
          <mxGeometry x="600" y="320" width="120" height="40" as="geometry" />
        </mxCell>
      </root>
    </mxGraphModel>
  </diagram>
</mxfile>
